<svg xmlns="http://www.w3.org/2000/svg" xmlns:xlink="http://www.w3.org/1999/xlink" xmlns:lucid="lucid" width="1581" height="873.71"><g transform="translate(-219.5 -126.78744379107576)" lucid:page-tab-id="0_0"><path d="M0 0h2000v1000H0z" fill="#fff"/><path d="M903.03 682.15a6 6 0 0 1 6-6H1774a6 6 0 0 1 6 6V974a6 6 0 0 1-6 6H909.03a6 6 0 0 1-6-6z" stroke="#3a414a" fill-opacity="0"/><use xlink:href="#a" transform="matrix(1,0,0,1,911.033105789524,684.1504616124544) translate(325.68518518518516 17.77777777777778)"/><use xlink:href="#b" transform="matrix(1,0,0,1,911.033105789524,684.1504616124544) translate(434.2654320987654 17.77777777777778)"/><path d="M240 333.3a6 6 0 0 1 6-6h288a6 6 0 0 1 6 6v468a6 6 0 0 1-6 6H246a6 6 0 0 1-6-6z" stroke="#3a414a" fill="#fff"/><use xlink:href="#c" transform="matrix(1,0,0,1,252,339.28744382260425) translate(97.90740740740742 231.52777777777777)"/><path d="M280 419.3a12 12 0 0 1 12-12h196a12 12 0 0 1 12 12v205.14a12 12 0 0 1-12 12H292a12 12 0 0 1-12-12z" stroke="#dfe3e8" stroke-width="8" fill="#fff"/><path d="M337.77 477.44c0 6.83-5.54 12.37-12.38 12.37-6.85 0-12.4-5.53-12.4-12.37 0-6.83 5.55-12.37 12.4-12.37 6.83 0 12.37 5.54 12.37 12.38zM337.77 510.45c0 6.83-5.54 12.38-12.38 12.38-6.85 0-12.4-5.55-12.4-12.38 0-6.84 5.55-12.38 12.4-12.38 6.83 0 12.37 5.54 12.37 12.38zM337.77 543.46c0 6.83-5.54 12.38-12.38 12.38-6.85 0-12.4-5.55-12.4-12.38 0-6.84 5.55-12.38 12.4-12.38 6.83 0 12.37 5.54 12.37 12.38zM337.77 576.47c0 6.83-5.54 12.38-12.38 12.38-6.85 0-12.4-5.55-12.4-12.38 0-6.84 5.55-12.38 12.4-12.38 6.83 0 12.37 5.53 12.37 12.37zM337.77 609.48c0 6.84-5.54 12.38-12.38 12.38-6.85 0-12.4-5.54-12.4-12.38 0-6.84 5.55-12.38 12.4-12.38 6.83 0 12.37 5.54 12.37 12.38z" stroke="#000" stroke-opacity=".25" fill="#f2f3f5"/><use xlink:href="#d" transform="matrix(1,0,0,1,313.0107719324326,432.0455227719287) translate(0 14.855555555555556)"/><use xlink:href="#e" transform="matrix(1,0,0,1,313.0107719324326,432.0455227719287) translate(24.209876543209873 14.855555555555556)"/><use xlink:href="#f" transform="matrix(1,0,0,1,313.0107719324326,432.0455227719287) translate(66.51172839506172 14.855555555555556)"/><use xlink:href="#g" transform="matrix(1,0,0,1,350.1478903564193,465.05629470436133) translate(0 15.3)"/><use xlink:href="#h" transform="matrix(1,0,0,1,350.1478903564193,498.0670666367939) translate(0 15.3)"/><use xlink:href="#i" transform="matrix(1,0,0,1,350.1478903564193,531.0778385692265) translate(0 15.3)"/><use xlink:href="#j" transform="matrix(1,0,0,1,350.1478903564193,531.0778385692265) translate(62.18333333333334 15.3)"/><use xlink:href="#k" transform="matrix(1,0,0,1,350.1478903564193,564.0886105016591) translate(0 15.3)"/><use xlink:href="#l" transform="matrix(1,0,0,1,350.1478903564193,564.0886105016591) translate(33.40555555555556 15.3)"/><use xlink:href="#m" transform="matrix(1,0,0,1,350.1478903564193,597.0993824340917) translate(0 11.200000000000001)"/><use xlink:href="#n" transform="matrix(1,0,0,1,350.1478903564193,597.0993824340917) translate(0 29.680000000000007)"/><path d="M240 333.3a6 6 0 0 1 6-6h288a6 6 0 0 1 6 6v68a6 6 0 0 1-6 6H246a6 6 0 0 1-6-6z" stroke="#000" stroke-opacity="0" fill="#fff" fill-opacity="0"/><use xlink:href="#o" transform="matrix(1,0,0,1,245.00000000000003,332.28744382260425) translate(109.9074074074074 39.65277777777778)"/><use xlink:href="#p" transform="matrix(1,0,0,1,245.00000000000003,332.28744382260425) translate(116.08024691358024 39.65277777777778)"/><use xlink:href="#q" transform="matrix(1,0,0,1,245.00000000000003,332.28744382260425) translate(157.9320987654321 39.65277777777778)"/><path d="M280 673.3a6 6 0 0 1 6-6h208a6 6 0 0 1 6 6v108a6 6 0 0 1-6 6H286a6 6 0 0 1-6-6z" stroke="#3a414a" fill-opacity="0"/><use xlink:href="#r" transform="matrix(1,0,0,1,288,675.2874438226042) translate(60.58024691358025 17.77777777777778)"/><path d="M350.25 711.97a12.48 12.48 0 0 1 9.75-4.68h60a12.48 12.48 0 0 1 9.75 4.67l16.5 20.63a7.5 7.5 0 0 1 0 9.37l-16.5 20.63a12.48 12.48 0 0 1-9.75 4.7h-60a12.48 12.48 0 0 1-9.75-4.7l-16.5-20.63a7.5 7.5 0 0 1 0-9.37z" stroke="#3a414a" fill="#fff"/><use xlink:href="#s" transform="matrix(1,0,0,1,335,712.2874438226042) translate(10.22722222222224 20.041666666666664)"/><use xlink:href="#t" transform="matrix(1,0,0,1,335,712.2874438226042) translate(39.81981481481482 20.041666666666664)"/><use xlink:href="#u" transform="matrix(1,0,0,1,335,712.2874438226042) translate(39.44944444444445 36.04166666666666)"/><path d="M516.53 522.36H504.5v-1h12.03zm102.6 0h-33.7v-1h33.7z" stroke="#3a414a" stroke-width=".05" fill="#3a414a"/><path d="M504.5 522.36h-.5v-1h.5z" fill="#3a414a"/><path d="M504.54 522.4h-.56v-1.06h.56zm-.52-1v.94h.47v-.95z" stroke="#3a414a" stroke-width=".05" fill="#3a414a"/><path d="M633.88 521.86l-14.26 4.64v-9.27z" fill="#3a414a"/><path d="M635.5 521.86l-16.38 5.33v-10.66zm-15.38 3.95l12.14-3.94-12.14-3.95z" stroke="#3a414a" stroke-width=".05" fill="#3a414a"/><use xlink:href="#v" transform="matrix(1,0,0,1,516.5278927901408,511.19566470656065) translate(0 14.222222222222223)"/><path d="M636 447.86a6 6 0 0 1 6-6h148a6 6 0 0 1 6 6v148a6 6 0 0 1-6 6H642a6 6 0 0 1-6-6z" stroke="#3a414a" fill="#fff"/><use xlink:href="#w" transform="matrix(1,0,0,1,641.0000499999995,446.86233137322733) translate(17.098765432098766 78.71527777777777)"/><use xlink:href="#x" transform="matrix(1,0,0,1,641.0000499999995,446.86233137322733) translate(45.4320987654321 78.71527777777777)"/><path d="M1196 447.86a6 6 0 0 1 6-6h148a6 6 0 0 1 6 6v148a6 6 0 0 1-6 6h-148a6 6 0 0 1-6-6z" stroke="#3a414a" fill="#fff"/><use xlink:href="#y" transform="matrix(1,0,0,1,1201.0000499999996,446.8623313732272) translate(44.75308641975309 64.65277777777777)"/><use xlink:href="#x" transform="matrix(1,0,0,1,1201.0000499999996,446.8623313732272) translate(31.26543209876543 91.31944444444446)"/><path d="M934.42 489.43H797v-1h137.42zm244.7 0h-121.54v-1h121.54z" stroke="#3a414a" stroke-width=".05" fill="#3a414a"/><path d="M797 489.43h-.5v-1h.5z" fill="#3a414a"/><path d="M797.04 489.46h-.56v-1.05h.56zm-.5-1v.95h.45v-.94z" stroke="#3a414a" stroke-width=".05" fill="#3a414a"/><path d="M1193.88 488.93l-14.27 4.64.02-9.27z" fill="#3a414a"/><path d="M1195.5 488.93l-16.38 5.32V483.6zm-15.38 3.95l12.14-3.95-12.14-3.95z" stroke="#3a414a" stroke-width=".05" fill="#3a414a"/><use xlink:href="#z" transform="matrix(1,0,0,1,934.4197808353497,478.2640816248058) translate(0 14.222222222222223)"/><path d="M973.4 550.7H812.9v-1h160.5zm221.6 0h-130.98v-1H1195z" stroke="#3a414a" stroke-width=".05" fill="#3a414a"/><path d="M1195.5 550.7h-.5v-1h.5z" fill="#3a414a"/><path d="M1195.53 550.73h-.57v-1.05h.57zm-.52-1v.95h.47v-.95z" stroke="#3a414a" stroke-width=".05" fill="#3a414a"/><path d="M812.4 554.84l-14.28-4.64 14.26-4.63z" fill="#3a414a"/><path d="M812.9 555.53l-16.4-5.33 16.38-5.32zm-13.16-5.33l12.14 3.95v-7.9z" stroke="#3a414a" stroke-width=".05" fill="#3a414a"/><use xlink:href="#A" transform="matrix(1,0,0,1,973.4066422718973,539.5370592297929) translate(0 14.222222222222223)"/><path d="M1096 327.3c0 11.03-44.77 20-100 20s-100-8.97-100-20v-160c0-11.06 44.77-20 100-20s100 8.94 100 20z" stroke="#3a414a" fill="#fff"/><path d="M1096 167.3c0 11.03-44.77 20-100 20s-100-8.97-100-20" stroke="#3a414a" fill="none"/><use xlink:href="#B" transform="matrix(1,0,0,1,901.0000499999995,192.28744379107576) translate(61.66666666666667 78.71527777777777)"/><path d="M716.5 440.86h-1v-88.8h1zM879.12 247.8h-157.1l-.88.06-.84.2-.8.33-.73.44-.66.56-.55.66-.45.73-.33.8-.2.83-.07.88v77.42h-1v-77.45l.08-1 .24-1 .4-.93.52-.87.66-.78.78-.67.87-.53.94-.4.98-.23 1-.08h157.14z" stroke="#3a414a" stroke-width=".05" fill="#3a414a"/><path d="M716.5 441.36h-1v-.5h1z" fill="#3a414a"/><path d="M716.52 441.4h-1.04v-.57h1.04zm-1-.52v.46h.96v-.46z" stroke="#3a414a" stroke-width=".05" fill="#3a414a"/><path d="M893.88 247.3l-14.26 4.62v-9.27z" fill="#3a414a"/><path d="M895.5 247.3l-16.38 5.3v-10.64zm-15.38 3.94l12.14-3.95-12.14-3.96z" stroke="#3a414a" stroke-width=".05" fill="#3a414a"/><use xlink:href="#C" transform="matrix(1,0,0,1,646.0247413580242,330.72043086334855) translate(0 14.222222222222223)"/><path d="M1276.5 440.86h-1V339.8h1zm-5.48-179.42l1 .24.93.4.87.52.78.66.66.78.53.87.38.95.24 1 .08 1v50.6h-1v-50.57l-.07-.88-.2-.84-.33-.8-.45-.73-.56-.66-.67-.56-.73-.44-.8-.33-.84-.2-.88-.07h-157.1v-1h157.14z" stroke="#3a414a" stroke-width=".05" fill="#3a414a"/><path d="M1276.5 441.36h-1v-.5h1z" fill="#3a414a"/><path d="M1276.53 441.4h-1.06v-.57h1.06zm-1-.52v.46h.94v-.46z" stroke="#3a414a" stroke-width=".05" fill="#3a414a"/><path d="M1112.38 266.5l-14.26-4.64 14.26-4.63z" fill="#3a414a"/><path d="M1112.88 267.2l-16.38-5.34 16.38-5.32zm-13.14-5.34l12.14 3.95v-7.88z" stroke="#3a414a" stroke-width=".05" fill="#3a414a"/><use xlink:href="#D" transform="matrix(1,0,0,1,1223.2840006172837,318.4513748507199) translate(0 14.222222222222223)"/><path d="M1291.08 424.98h-1v-85.2h1zm-5.5-178.1l1 .22.95.4.87.53.77.66.66.77.54.87.4.94.23 1 .08 1v65.17h-1V253.3l-.07-.87-.2-.84-.33-.8-.45-.74-.56-.66-.65-.56-.73-.45-.8-.34-.84-.2-.88-.07H1097v-1h187.6z" stroke="#3a414a" stroke-width=".05" fill="#3a414a"/><path d="M1097 247.8h-.5v-1h.5z" fill="#3a414a"/><path d="M1097.04 247.8h-.57v-1.04h.57zm-.5-1v.96h.45v-.95z" stroke="#3a414a" stroke-width=".05" fill="#3a414a"/><path d="M1290.58 439.74l-4.64-14.26h9.27z" fill="#3a414a"/><path d="M1290.58 441.36l-5.33-16.38h10.65zm-3.95-15.38l3.94 12.15 3.95-12.15zM1046 639.76H868.56l-.88.07-.84.2-.8.33-.73.45-.65.57-.56.65-.47.74-.33.8-.2.84-.07.88v176.78l.07.88.2.83.33.8.46.74.54.66.66.56.74.45.8.33.83.2.88.08h17.6v1H868.5l-.98-.08-1-.24-.94-.4-.87-.52-.76-.67-.67-.77-.53-.87-.4-.95-.23-1-.07-1V645.25l.08-1 .25-1 .4-.94.52-.87.67-.77.77-.66.88-.54.94-.4 1-.22 1-.08H1046zm230.5-6.48l-.08 1-.24 1-.4.93-.52.88-.66.77-.78.67-.87.53-.94.4-.98.23-1 .08h-57.35v-1h57.3l.9-.07.83-.2.8-.34.73-.45.66-.56.55-.65.45-.75.33-.8.2-.83.07-.88v-30.38h1z" stroke="#3a414a" stroke-width=".05" fill="#3a414a"/><path d="M1276.5 602.88h-1v-.52h1z" fill="#3a414a"/><path d="M1276.53 602.9h-1.06v-.56h1.06zm-1-.5v.45h.94v-.46z" stroke="#3a414a" stroke-width=".05" fill="#3a414a"/><path d="M900.9 828.08l-14.25 4.63v-9.26z" fill="#3a414a"/><path d="M902.53 828.08l-16.38 5.32v-10.65zm-15.38 3.94l12.15-3.94-12.15-3.95z" stroke="#3a414a" stroke-width=".05" fill="#3a414a"/><use xlink:href="#E" transform="matrix(1,0,0,1,1046.0067965360029,628.5897048261742) translate(0 14.222222222222223)"/><path d="M1123.7 818.88a6 6 0 0 1 6-6h437.8a6 6 0 0 1 6 6v48.77a6 6 0 0 1-6 6h-437.8a6 6 0 0 1-6-6z" stroke="#3a414a" fill="#fff"/><path d="M1151.24 824.63a14.9 14.9 0 0 1 10.33-4.15h59.2a14.9 14.9 0 0 1 10.3 4.15l15.1 14.48a5.76 5.76 0 0 1 0 8.32l-15.1 14.48a14.9 14.9 0 0 1-10.3 4.16h-59.2a14.9 14.9 0 0 1-10.33-4.16l-15.08-14.48a5.76 5.76 0 0 1 0-8.3z" stroke="#3a414a" fill="#fff"/><use xlink:href="#F" transform="matrix(1,0,0,1,1136.8351167240273,825.4789923465386) translate(12.591419753086415 22.27777777777778)"/><path d="M1396.3 820.48c12.57 0 22.78 10.2 22.78 22.8 0 12.57-10.2 22.78-22.8 22.78h-96.1c-12.57 0-22.78-10.2-22.78-22.8 0-12.58 10.2-22.78 22.8-22.78z" stroke="#3a414a" fill="#fff"/><use xlink:href="#G" transform="matrix(1,0,0,1,1282.404003211322,825.4789923465386) translate(27.75925925925926 22.27777777777778)"/><path d="M1465.4 824.63a14.9 14.9 0 0 1 10.32-4.15h59.2a14.9 14.9 0 0 1 10.32 4.15l15.08 14.48a5.76 5.76 0 0 1 0 8.32l-15.08 14.48a14.9 14.9 0 0 1-10.32 4.16h-59.2a14.9 14.9 0 0 1-10.32-4.16l-15.08-14.48a5.76 5.76 0 0 1 0-8.3z" stroke="#3a414a" fill="#fff"/><use xlink:href="#H" transform="matrix(1,0,0,1,1450.9947885359995,825.4789923465386) translate(7.679012345679013 22.444444444444443)"/><path d="M1248.93 843.27h11.6" stroke="#3a414a" fill="none"/><path d="M1248.94 843.77h-.55l.03-.5-.04-.5h.54z" stroke="#3a414a" stroke-width=".05" fill="#3a414a"/><path d="M1275.3 843.27L1261 847.9v-9.27z" stroke="#3a414a" fill="#3a414a"/><path d="M1420.08 843.27h11.6" stroke="#3a414a" fill="none"/><path d="M1420.1 843.77h-.57l.05-.48v-.53h.5z" stroke="#3a414a" stroke-width=".05" fill="#3a414a"/><path d="M1446.43 843.27l-14.26 4.63v-9.27z" stroke="#3a414a" fill="#3a414a"/><path d="M1115.54 727.73a6 6 0 0 1 6-6h437.8a6 6 0 0 1 6 6v48.77a6 6 0 0 1-6 6h-437.8a6 6 0 0 1-6-6z" stroke="#3a414a" fill="#fff"/><path d="M1143.1 733.48a14.9 14.9 0 0 1 10.32-4.16h59.2a14.9 14.9 0 0 1 10.32 4.16l15.07 14.48a5.76 5.76 0 0 1 0 8.3l-15.06 14.5a14.9 14.9 0 0 1-10.33 4.14h-59.18a14.9 14.9 0 0 1-10.33-4.15L1128 756.27a5.76 5.76 0 0 1 0-8.3z" stroke="#3a414a" fill="#fff"/><use xlink:href="#I" transform="matrix(1,0,0,1,1128.6888246317899,734.324130830275) translate(12.591419753086415 22.27777777777778)"/><path d="M1388.14 729.32c12.6 0 22.8 10.2 22.8 22.8 0 12.58-10.2 22.78-22.8 22.78h-96.1c-12.58 0-22.78-10.2-22.78-22.8 0-12.57 10.2-22.78 22.8-22.78z" stroke="#3a414a" fill="#fff"/><use xlink:href="#G" transform="matrix(1,0,0,1,1274.2577111190844,734.324130830275) translate(27.75925925925926 22.27777777777778)"/><path d="M1457.25 733.48a14.9 14.9 0 0 1 10.33-4.16h59.2a14.9 14.9 0 0 1 10.32 4.16l15.07 14.48a5.76 5.76 0 0 1 0 8.3l-15.07 14.5a14.9 14.9 0 0 1-10.33 4.14h-59.2a14.9 14.9 0 0 1-10.32-4.15l-15.07-14.48a5.76 5.76 0 0 1 0-8.3z" stroke="#3a414a" fill="#fff"/><use xlink:href="#H" transform="matrix(1,0,0,1,1442.8484964437619,734.324130830275) translate(7.679012345679013 22.444444444444443)"/><path d="M1240.8 752.1h11.57" stroke="#3a414a" fill="none"/><path d="M1240.8 752.6h-.56l.05-.5-.06-.5h.56z" stroke="#3a414a" stroke-width=".05" fill="#3a414a"/><path d="M1267.14 752.1l-14.27 4.65v-9.27z" stroke="#3a414a" fill="#3a414a"/><path d="M1411.93 752.1h11.6" stroke="#3a414a" fill="none"/><path d="M1411.94 752.6h-.56l.05-.46v-.53h.5z" stroke="#3a414a" stroke-width=".05" fill="#3a414a"/><path d="M1438.3 752.1l-14.28 4.65v-9.27z" stroke="#3a414a" fill="#3a414a"/><path d="M1589.46 751.7l1 .23.94.4.87.52.77.67.66.77.54.86.4.94.23 1 .07 1v33.6l-.07 1-.24 1-.4.94-.53.87-.66.8-.77.65-.87.53-.95.4-1 .23-1 .1h-488.54l-.87.06-.84.2-.8.33-.74.44-.66.56-.56.66-.45.73-.34.8-.2.83-.07.88v33.55l.06.88.2.84.33.8.44.73.56.66.66.56.73.45.8.33.83.2.88.07h17.6v1h-17.63l-1-.08-1-.25-.93-.4-.87-.52-.78-.66-.67-.78-.53-.88-.4-.94-.23-1-.08-1v-33.6l.07-1 .24-1 .4-.94.53-.87.66-.78.77-.67.87-.53.94-.4 1-.23 1-.08h488.54l.88-.08.84-.2.8-.33.74-.46.65-.56.56-.66.44-.73.33-.8.2-.85.07-.88v-33.54l-.07-.88-.2-.84-.33-.78-.45-.74-.57-.65-.65-.57-.74-.45-.8-.32-.84-.2-.88-.07h-33.48v-1h33.52z" stroke="#3a414a" stroke-width=".05" fill="#3a414a"/><path d="M1554.96 752.6h-.56l.04-.5-.04-.5h.56z" fill="#3a414a"/><path d="M1554.98 752.64h-.6l.04-.53-.04-.5h.6zm-.55-1l.04.47-.04.5h.5v-.96z" stroke="#3a414a" stroke-width=".05" fill="#3a414a"/><path d="M1132.27 843.27L1118 847.9v-9.27z" fill="#3a414a"/><path d="M1133.9 843.27l-16.4 5.32v-10.66zm-15.4 3.95l12.15-3.95-12.14-3.95z" stroke="#3a414a" stroke-width=".05" fill="#3a414a"/><path d="M1123.7 910.04a6 6 0 0 1 6-6h437.8a6 6 0 0 1 6 6v48.77a6 6 0 0 1-6 6h-437.8a6 6 0 0 1-6-6z" stroke="#3a414a" fill="#fff"/><path d="M1151.24 915.8a14.9 14.9 0 0 1 10.33-4.17h59.2a14.9 14.9 0 0 1 10.3 4.16l15.1 14.47a5.76 5.76 0 0 1 0 8.3l-15.1 14.48a14.9 14.9 0 0 1-10.3 4.16h-59.2a14.9 14.9 0 0 1-10.33-4.15l-15.08-14.47a5.76 5.76 0 0 1 0-8.3z" stroke="#3a414a" fill="#fff"/><use xlink:href="#J" transform="matrix(1,0,0,1,1136.8351167240278,916.6338538628022) translate(12.591419753086415 22.27777777777778)"/><path d="M1396.3 911.63c12.57 0 22.78 10.2 22.78 22.8 0 12.58-10.2 22.78-22.8 22.78h-96.1c-12.57 0-22.78-10.2-22.78-22.78 0-12.58 10.2-22.8 22.8-22.8z" stroke="#3a414a" fill="#fff"/><use xlink:href="#G" transform="matrix(1,0,0,1,1282.4040032113223,916.6338538628022) translate(27.75925925925926 22.27777777777778)"/><path d="M1465.4 915.8a14.9 14.9 0 0 1 10.32-4.17h59.2a14.9 14.9 0 0 1 10.32 4.16l15.08 14.47a5.76 5.76 0 0 1 0 8.3l-15.08 14.48a14.9 14.9 0 0 1-10.32 4.16h-59.2a14.9 14.9 0 0 1-10.32-4.15l-15.08-14.47a5.76 5.76 0 0 1 0-8.3z" stroke="#3a414a" fill="#fff"/><use xlink:href="#H" transform="matrix(1,0,0,1,1450.9947885359998,916.6338538628022) translate(7.679012345679013 22.444444444444443)"/><path d="M1248.93 934.42h11.6" stroke="#3a414a" fill="none"/><path d="M1248.94 934.92h-.55l.03-.5-.04-.5h.54z" stroke="#3a414a" stroke-width=".05" fill="#3a414a"/><path d="M1275.3 934.42l-14.28 4.64v-9.27z" stroke="#3a414a" fill="#3a414a"/><path d="M1420.08 934.42h11.6" stroke="#3a414a" fill="none"/><path d="M1420.1 934.92h-.57l.05-.47v-.53h.5z" stroke="#3a414a" stroke-width=".05" fill="#3a414a"/><path d="M1446.43 934.42l-14.26 4.64v-9.27z" stroke="#3a414a" fill="#3a414a"/><path d="M1563.1 843.27h33.5a6 6 0 0 1 6 6v29.78a6 6 0 0 1-6 6h-507.4a6 6 0 0 0-6 6v37.37a6 6 0 0 0 6 6h17.6" stroke="#3a414a" fill="none"/><path d="M1563.1 843.77h-.55l.04-.5-.05-.5h.55z" stroke="#3a414a" stroke-width=".05" fill="#3a414a"/><path d="M1121.57 934.42l-14.26 4.64v-9.27z" stroke="#3a414a" fill="#3a414a"/><path d="M920 829.33a6 6 0 0 1 6-6h94.25a6 6 0 0 1 6 6v27.88a6 6 0 0 1-6 6H926a6 6 0 0 1-6-6z" stroke="#3a414a" fill="#fff"/><use xlink:href="#K" transform="matrix(1,0,0,1,932,835.3275817689218) translate(2.0246913580246897 17.77777777777778)"/><path d="M973.63 822.33h-1v-59.55h1zm135.73-69.72h-7.58v-1h7.58z" stroke="#3a414a" stroke-width=".05" fill="#3a414a"/><path d="M973.63 822.83h-1v-.5h1z" fill="#3a414a"/><path d="M973.65 822.85h-1.05v-.56h1.05zm-1-.5v.45h.95v-.46z" stroke="#3a414a" stroke-width=".05" fill="#3a414a"/><path d="M1124.13 752.1l-14.27 4.65v-9.27z" fill="#3a414a"/><path d="M1125.74 752.1l-16.38 5.34V746.8zm-15.38 3.96l12.15-3.95-12.14-3.93z" stroke="#3a414a" stroke-width=".05" fill="#3a414a"/><use xlink:href="#L" transform="matrix(1,0,0,1,926.3745503707271,741.4461795426743) translate(0 14.222222222222223)"/><path d="M1738.88 786.3c12.6 0 22.8 10.2 22.8 22.8 0 12.57-10.2 22.77-22.8 22.77h-96.1c-12.58 0-22.78-10.2-22.78-22.78 0-12.6 10.2-22.8 22.8-22.8z" stroke="#3a414a" fill="#fff"/><use xlink:href="#M" transform="matrix(1,0,0,1,1625,791.2959192779397) translate(33.96296296296297 22.27777777777778)"/><path d="M1647.88 701.47a13.04 13.04 0 0 1 9.9-4.56h66.1a13.04 13.04 0 0 1 9.9 4.57l18.23 21.26a7 7 0 0 1 0 9.1l-18.2 21.28a13.04 13.04 0 0 1-9.9 4.56h-66.1a13.04 13.04 0 0 1-9.92-4.55l-18.22-21.26a7 7 0 0 1 0-9.1z" stroke="#3a414a" fill="#fff"/><use xlink:href="#N" transform="matrix(1,0,0,1,1630.755474721373,701.9114296369066) translate(30.406234567901237 20.96527777777778)"/><use xlink:href="#O" transform="matrix(1,0,0,1,1630.755474721373,701.9114296369066) translate(27.350679012345683 47.63194444444444)"/><path d="M1027.26 843.27h90.25" stroke="#3a414a" fill="none"/><path d="M1027.27 843.77h-.5v-1h.5z" stroke="#3a414a" stroke-width=".05" fill="#3a414a"/><path d="M1132.27 843.27L1118 847.9v-9.27z" stroke="#3a414a" fill="#3a414a"/><path d="M973.13 864.2v64.22a6 6 0 0 0 6 6h138.38" stroke="#3a414a" fill="none"/><path d="M973.63 864.22h-1v-.5h1z" stroke="#3a414a" stroke-width=".05" fill="#3a414a"/><path d="M1132.27 934.42l-14.26 4.64v-9.27z" stroke="#3a414a" fill="#3a414a"/><path d="M1684.86 632.25l1 .08 1 .23.93.4.86.53.77.65.67.78.53.87.4.94.23 1 .08 1v57.17h-1v-57.13l-.07-.88-.2-.85-.33-.8-.45-.74-.58-.64-.65-.56-.74-.45-.8-.33-.83-.2-.88-.07h-238.8v-1zm-366.04-5.52l.07.88.2.85.32.8.45.73.56.65.65.57.74.45.8.33.84.2.88.07h26.12v1h-26.16l-1-.08-1-.24-.94-.4-.87-.52-.78-.66-.66-.77-.54-.87-.4-.94-.23-1-.08-1v-8h1z" stroke="#3a414a" stroke-width=".05" fill="#3a414a"/><path d="M1691.34 696.4h-1v-.5h1z" fill="#3a414a"/><path d="M1691.36 696.44h-1.05v-.57h1.06zm-1-.52v.47h.95v-.48z" stroke="#3a414a" stroke-width=".05" fill="#3a414a"/><path d="M1322.95 618.25h-9.27l4.64-14.27z" fill="#3a414a"/><path d="M1323.64 618.75H1313l5.32-16.4zm-9.27-1h7.9l-3.95-12.15z" stroke="#3a414a" stroke-width=".05" fill="#3a414a"/><use xlink:href="#P" transform="matrix(1,0,0,1,1350.460981968293,622.0805446134227) translate(0 14.222222222222223)"/><path d="M609.3 737.8H464.77v-1h144.5zm107.2-6.5l-.08 1-.24 1-.4.94-.52.87-.66.78-.78.67-.87.53-.94.4-.98.23-1 .1h-20v-1H710l.88-.08.84-.2.8-.33.73-.46.66-.57.55-.65.45-.74.33-.8.2-.83.07-.88v-128.4h1z" stroke="#3a414a" stroke-width=".05" fill="#3a414a"/><path d="M716.5 602.88h-1v-.52h1z" fill="#3a414a"/><path d="M716.52 602.9h-1.04v-.56h1.04zm-1-.5v.45h.96v-.46z" stroke="#3a414a" stroke-width=".05" fill="#3a414a"/><path d="M464.28 741.92L450 737.3l14.28-4.65z" fill="#3a414a"/><path d="M464.78 742.6l-16.38-5.3 16.38-5.34zm-13.15-5.3l12.15 3.94v-7.9z" stroke="#3a414a" stroke-width=".05" fill="#3a414a"/><g><use xlink:href="#Q" transform="matrix(1,0,0,1,609.2904516833155,726.6207771559376) translate(0 14.222222222222223)"/></g><path d="M1690.84 785.3v-10.75" stroke="#3a414a" fill="none"/><path d="M1691.34 785.8h-1v-.52h1z" stroke="#3a414a" stroke-width=".05" fill="#3a414a"/><path d="M1690.84 759.78l4.63 14.27h-9.27z" stroke="#3a414a" fill="#3a414a"/><path d="M1650.9 862.62a14.9 14.9 0 0 1 10.34-4.16h59.2a14.9 14.9 0 0 1 10.32 4.16l15.07 14.47a5.76 5.76 0 0 1 0 8.3l-15.07 14.48a14.9 14.9 0 0 1-10.33 4.16h-59.2a14.9 14.9 0 0 1-10.32-4.16l-15.06-14.48a5.76 5.76 0 0 1 0-8.3z" stroke="#3a414a" fill="#fff"/><g><use xlink:href="#R" transform="matrix(1,0,0,1,1636.5109494186916,863.4601846449817) translate(12.591419753086415 22.27777777777778)"/></g><path d="M1563.1 934.42h121.74a6 6 0 0 0 6-6v-7.5" stroke="#3a414a" fill="none"/><path d="M1563.1 934.92h-.55l.04-.5-.05-.5h.55z" stroke="#3a414a" stroke-width=".05" fill="#3a414a"/><path d="M1690.84 906.16l4.63 14.26h-9.27z" stroke="#3a414a" fill="#3a414a"/><path d="M1690.84 857.46v-8.7" stroke="#3a414a" fill="none"/><path d="M1691.34 857.96h-1v-.5h1z" stroke="#3a414a" stroke-width=".05" fill="#3a414a"/><path d="M1690.84 834l4.63 14.26h-9.27z" stroke="#3a414a" fill="#3a414a"/><defs><path fill="#3a414a" d="M30 0v-248h33v221h125V0H30" id="S"/><path fill="#3a414a" d="M141-36C126-15 110 5 73 4 37 3 15-17 15-53c-1-64 63-63 125-63 3-35-9-54-41-54-24 1-41 7-42 31l-33-3c5-37 33-52 76-52 45 0 72 20 72 64v82c-1 20 7 32 28 27v20c-31 9-61-2-59-35zM48-53c0 20 12 33 32 33 41-3 63-29 60-74-43 2-92-5-92 41" id="T"/><path fill="#3a414a" d="M117-194c89-4 53 116 60 194h-32v-121c0-31-8-49-39-48C34-167 62-67 57 0H25l-1-190h30c1 10-1 24 2 32 11-22 29-35 61-36" id="U"/><path fill="#3a414a" d="M177-190C167-65 218 103 67 71c-23-6-38-20-44-43l32-5c15 47 100 32 89-28v-30C133-14 115 1 83 1 29 1 15-40 15-95c0-56 16-97 71-98 29-1 48 16 59 35 1-10 0-23 2-32h30zM94-22c36 0 50-32 50-73 0-42-14-75-50-75-39 0-46 34-46 75s6 73 46 73" id="V"/><path fill="#3a414a" d="M96-169c-40 0-48 33-48 73s9 75 48 75c24 0 41-14 43-38l32 2c-6 37-31 61-74 61-59 0-76-41-82-99-10-93 101-131 147-64 4 7 5 14 7 22l-32 3c-4-21-16-35-41-35" id="W"/><path fill="#3a414a" d="M106-169C34-169 62-67 57 0H25v-261h32l-1 103c12-21 28-36 61-36 89 0 53 116 60 194h-32v-121c2-32-8-49-39-48" id="X"/><path fill="#3a414a" d="M24-231v-30h32v30H24zM24 0v-190h32V0H24" id="Y"/><g id="a"><use transform="matrix(0.06172839506172839,0,0,0.06172839506172839,0,0)" xlink:href="#S"/><use transform="matrix(0.06172839506172839,0,0,0.06172839506172839,12.345679012345679,0)" xlink:href="#T"/><use transform="matrix(0.06172839506172839,0,0,0.06172839506172839,24.691358024691358,0)" xlink:href="#U"/><use transform="matrix(0.06172839506172839,0,0,0.06172839506172839,37.03703703703704,0)" xlink:href="#V"/><use transform="matrix(0.06172839506172839,0,0,0.06172839506172839,49.382716049382715,0)" xlink:href="#W"/><use transform="matrix(0.06172839506172839,0,0,0.06172839506172839,60.49382716049382,0)" xlink:href="#X"/><use transform="matrix(0.06172839506172839,0,0,0.06172839506172839,72.8395061728395,0)" xlink:href="#T"/><use transform="matrix(0.06172839506172839,0,0,0.06172839506172839,85.18518518518519,0)" xlink:href="#Y"/><use transform="matrix(0.06172839506172839,0,0,0.06172839506172839,90.06172839506173,0)" xlink:href="#U"/></g><path fill="#3a414a" d="M240 0l2-218c-23 76-54 145-80 218h-23L58-218 59 0H30v-248h44l77 211c21-75 51-140 76-211h43V0h-30" id="Z"/><path fill="#3a414a" d="M212-179c-10-28-35-45-73-45-59 0-87 40-87 99 0 60 29 101 89 101 43 0 62-24 78-52l27 14C228-24 195 4 139 4 59 4 22-46 18-125c-6-104 99-153 187-111 19 9 31 26 39 46" id="aa"/><g id="b"><use transform="matrix(0.06172839506172839,0,0,0.06172839506172839,0,0)" xlink:href="#S"/><use transform="matrix(0.06172839506172839,0,0,0.06172839506172839,12.345679012345679,0)" xlink:href="#S"/><use transform="matrix(0.06172839506172839,0,0,0.06172839506172839,24.691358024691358,0)" xlink:href="#Z"/><use transform="matrix(0.06172839506172839,0,0,0.06172839506172839,43.148148148148145,0)" xlink:href="#aa"/><use transform="matrix(0.06172839506172839,0,0,0.06172839506172839,59.1358024691358,0)" xlink:href="#X"/><use transform="matrix(0.06172839506172839,0,0,0.06172839506172839,71.48148148148148,0)" xlink:href="#T"/><use transform="matrix(0.06172839506172839,0,0,0.06172839506172839,83.82716049382717,0)" xlink:href="#Y"/><use transform="matrix(0.06172839506172839,0,0,0.06172839506172839,88.70370370370371,0)" xlink:href="#U"/></g><path fill="#3a414a" d="M30-248c87 1 191-15 191 75 0 78-77 80-158 76V0H30v-248zm33 125c57 0 124 11 124-50 0-59-68-47-124-48v98" id="ab"/><path fill="#3a414a" d="M114-163C36-179 61-72 57 0H25l-1-190h30c1 12-1 29 2 39 6-27 23-49 58-41v29" id="ac"/><path fill="#3a414a" d="M100-194c62-1 85 37 85 99 1 63-27 99-86 99S16-35 15-95c0-66 28-99 85-99zM99-20c44 1 53-31 53-75 0-43-8-75-51-75s-53 32-53 75 10 74 51 75" id="ad"/><path fill="#3a414a" d="M100-194c63 0 86 42 84 106H49c0 40 14 67 53 68 26 1 43-12 49-29l28 8c-11 28-37 45-77 45C44 4 14-33 15-96c1-61 26-98 85-98zm52 81c6-60-76-77-97-28-3 7-6 17-6 28h103" id="ae"/><path fill="#3a414a" d="M135-143c-3-34-86-38-87 0 15 53 115 12 119 90S17 21 10-45l28-5c4 36 97 45 98 0-10-56-113-15-118-90-4-57 82-63 122-42 12 7 21 19 24 35" id="af"/><g id="c"><use transform="matrix(0.06172839506172839,0,0,0.06172839506172839,0,0)" xlink:href="#ab"/><use transform="matrix(0.06172839506172839,0,0,0.06172839506172839,14.814814814814813,0)" xlink:href="#ac"/><use transform="matrix(0.06172839506172839,0,0,0.06172839506172839,22.160493827160494,0)" xlink:href="#ad"/><use transform="matrix(0.06172839506172839,0,0,0.06172839506172839,34.50617283950617,0)" xlink:href="#W"/><use transform="matrix(0.06172839506172839,0,0,0.06172839506172839,45.61728395061728,0)" xlink:href="#ae"/><use transform="matrix(0.06172839506172839,0,0,0.06172839506172839,57.962962962962955,0)" xlink:href="#af"/><use transform="matrix(0.06172839506172839,0,0,0.06172839506172839,69.07407407407406,0)" xlink:href="#af"/></g><path d="M176-78C186 10 51 31 16-35c-5-9-9-19-11-32l52-8c4 21 12 37 35 38 23 0 32-16 32-40v-130H75v-41h101v170" id="ag"/><path d="M25-224v-37h50v37H25zM25 0v-190h50V0H25" id="ah"/><path d="M135-150c-39-12-60 13-60 57V0H25l-1-190h47c2 13-1 29 3 40 6-28 27-53 61-41v41" id="ai"/><path d="M133-34C117-15 103 5 69 4 32 3 11-16 11-54c-1-60 55-63 116-61 1-26-3-47-28-47-18 1-26 9-28 27l-52-2c7-38 36-58 82-57s74 22 75 68l1 82c-1 14 12 18 25 15v27c-30 8-71 5-69-32zm-48 3c29 0 43-24 42-57-32 0-66-3-65 30 0 17 8 27 23 27" id="aj"/><g id="d"><use transform="matrix(0.03271604938271604,0,0,0.03271604938271604,0,0)" xlink:href="#ag"/><use transform="matrix(0.03271604938271604,0,0,0.03271604938271604,6.543209876543209,0)" xlink:href="#ah"/><use transform="matrix(0.03271604938271604,0,0,0.03271604938271604,9.814814814814813,0)" xlink:href="#ai"/><use transform="matrix(0.03271604938271604,0,0,0.03271604938271604,14.39506172839506,0)" xlink:href="#aj"/></g><path d="M275 0h-61l-44-196L126 0H64L0-248h53L97-49l45-199h58l43 199 44-199h52" id="ak"/><path d="M88-194c31-1 46 15 58 34l-1-101h50l1 261h-48c-2-10 0-23-3-31C134-8 116 4 84 4 32 4 16-41 15-95c0-56 19-97 73-99zm17 164c33 0 40-30 41-66 1-37-9-64-41-64s-38 30-39 65c0 43 13 65 39 65" id="al"/><path d="M195-6C206 82 75 100 31 46c-4-6-6-13-8-21l49-6c3 16 16 24 34 25 40 0 42-37 40-79-11 22-30 35-61 35-53 0-70-43-70-97 0-56 18-96 73-97 30 0 46 14 59 34l2-30h47zm-90-29c32 0 41-27 41-63 0-35-9-62-40-62-32 0-39 29-40 63 0 36 9 62 39 62" id="am"/><path d="M185-48c-13 30-37 53-82 52C43 2 14-33 14-96s30-98 90-98c62 0 83 45 84 108H66c0 31 8 55 39 56 18 0 30-7 34-22zm-45-69c5-46-57-63-70-21-2 6-4 13-4 21h74" id="an"/><path d="M115-3C79 11 28 4 28-45v-112H4v-33h27l15-45h31v45h36v33H77v99c-1 23 16 31 38 25v30" id="ao"/><g id="e"><use transform="matrix(0.03271604938271604,0,0,0.03271604938271604,0,0)" xlink:href="#ak"/><use transform="matrix(0.03271604938271604,0,0,0.03271604938271604,10.99259259259259,0)" xlink:href="#ah"/><use transform="matrix(0.03271604938271604,0,0,0.03271604938271604,14.264197530864195,0)" xlink:href="#al"/><use transform="matrix(0.03271604938271604,0,0,0.03271604938271604,21.42901234567901,0)" xlink:href="#am"/><use transform="matrix(0.03271604938271604,0,0,0.03271604938271604,28.593827160493824,0)" xlink:href="#an"/><use transform="matrix(0.03271604938271604,0,0,0.03271604938271604,35.13703703703703,0)" xlink:href="#ao"/></g><path d="M24 0v-248h52V0H24" id="ap"/><path d="M135-194c87-1 58 113 63 194h-50c-7-57 23-157-34-157-59 0-34 97-39 157H25l-1-190h47c2 12-1 28 3 38 12-26 28-41 61-42" id="aq"/><path d="M135-194c53 0 70 44 70 98 0 56-19 98-73 100-31 1-45-17-59-34 3 33 2 69 2 105H25l-1-265h48c2 10 0 23 3 31 11-24 29-35 60-35zM114-30c33 0 39-31 40-66 0-38-9-64-40-64-56 0-55 130 0 130" id="ar"/><path d="M85 4C-2 5 27-109 22-190h50c7 57-23 150 33 157 60-5 35-97 40-157h50l1 190h-47c-2-12 1-28-3-38-12 25-28 42-61 42" id="as"/><path d="M137-138c1-29-70-34-71-4 15 46 118 7 119 86 1 83-164 76-172 9l43-7c4 19 20 25 44 25 33 8 57-30 24-41C81-84 22-81 20-136c-2-80 154-74 161-7" id="at"/><g id="f"><use transform="matrix(0.03271604938271604,0,0,0.03271604938271604,0,0)" xlink:href="#ap"/><use transform="matrix(0.03271604938271604,0,0,0.03271604938271604,3.2716049382716044,0)" xlink:href="#aq"/><use transform="matrix(0.03271604938271604,0,0,0.03271604938271604,10.436419753086419,0)" xlink:href="#ar"/><use transform="matrix(0.03271604938271604,0,0,0.03271604938271604,17.601234567901233,0)" xlink:href="#as"/><use transform="matrix(0.03271604938271604,0,0,0.03271604938271604,24.766049382716048,0)" xlink:href="#ao"/><use transform="matrix(0.03271604938271604,0,0,0.03271604938271604,28.659259259259258,0)" xlink:href="#at"/></g><path d="M63-220v92h138v28H63V0H30v-248h175v28H63" id="au"/><path d="M100-194c63 0 86 42 84 106H49c0 40 14 67 53 68 26 1 43-12 49-29l28 8c-11 28-37 45-77 45C44 4 14-33 15-96c1-61 26-98 85-98zm52 81c6-60-76-77-97-28-3 7-6 17-6 28h103" id="av"/><path d="M141-36C126-15 110 5 73 4 37 3 15-17 15-53c-1-64 63-63 125-63 3-35-9-54-41-54-24 1-41 7-42 31l-33-3c5-37 33-52 76-52 45 0 72 20 72 64v82c-1 20 7 32 28 27v20c-31 9-61-2-59-35zM48-53c0 20 12 33 32 33 41-3 63-29 60-74-43 2-92-5-92 41" id="aw"/><path d="M59-47c-2 24 18 29 38 22v24C64 9 27 4 27-40v-127H5v-23h24l9-43h21v43h35v23H59v120" id="ax"/><path d="M84 4C-5 8 30-112 23-190h32v120c0 31 7 50 39 49 72-2 45-101 50-169h31l1 190h-30c-1-10 1-25-2-33-11 22-28 36-60 37" id="ay"/><path d="M114-163C36-179 61-72 57 0H25l-1-190h30c1 12-1 29 2 39 6-27 23-49 58-41v29" id="az"/><path d="M135-143c-3-34-86-38-87 0 15 53 115 12 119 90S17 21 10-45l28-5c4 36 97 45 98 0-10-56-113-15-118-90-4-57 82-63 122-42 12 7 21 19 24 35" id="aA"/><g id="g"><use transform="matrix(0.03888888888888889,0,0,0.03888888888888889,0,0)" xlink:href="#au"/><use transform="matrix(0.03888888888888889,0,0,0.03888888888888889,8.516666666666667,0)" xlink:href="#av"/><use transform="matrix(0.03888888888888889,0,0,0.03888888888888889,16.294444444444444,0)" xlink:href="#aw"/><use transform="matrix(0.03888888888888889,0,0,0.03888888888888889,24.072222222222223,0)" xlink:href="#ax"/><use transform="matrix(0.03888888888888889,0,0,0.03888888888888889,27.961111111111112,0)" xlink:href="#ay"/><use transform="matrix(0.03888888888888889,0,0,0.03888888888888889,35.73888888888889,0)" xlink:href="#az"/><use transform="matrix(0.03888888888888889,0,0,0.03888888888888889,40.36666666666667,0)" xlink:href="#av"/><use transform="matrix(0.03888888888888889,0,0,0.03888888888888889,48.144444444444446,0)" xlink:href="#aA"/></g><path d="M30-248c118-7 216 8 213 122C240-48 200 0 122 0H30v-248zM63-27c89 8 146-16 146-99s-60-101-146-95v194" id="aB"/><path d="M108 0H70L1-190h34L89-25l56-165h34" id="aC"/><path d="M24 0v-261h32V0H24" id="aD"/><path d="M100-194c62-1 85 37 85 99 1 63-27 99-86 99S16-35 15-95c0-66 28-99 85-99zM99-20c44 1 53-31 53-75 0-43-8-75-51-75s-53 32-53 75 10 74 51 75" id="aE"/><path d="M115-194c55 1 70 41 70 98S169 2 115 4C84 4 66-9 55-30l1 105H24l-1-265h31l2 30c10-21 28-34 59-34zm-8 174c40 0 45-34 45-75s-6-73-45-74c-42 0-51 32-51 76 0 43 10 73 51 73" id="aF"/><g id="h"><use transform="matrix(0.03888888888888889,0,0,0.03888888888888889,0,0)" xlink:href="#aB"/><use transform="matrix(0.03888888888888889,0,0,0.03888888888888889,10.072222222222223,0)" xlink:href="#av"/><use transform="matrix(0.03888888888888889,0,0,0.03888888888888889,17.85,0)" xlink:href="#aC"/><use transform="matrix(0.03888888888888889,0,0,0.03888888888888889,24.85,0)" xlink:href="#av"/><use transform="matrix(0.03888888888888889,0,0,0.03888888888888889,32.62777777777778,0)" xlink:href="#aD"/><use transform="matrix(0.03888888888888889,0,0,0.03888888888888889,35.7,0)" xlink:href="#aE"/><use transform="matrix(0.03888888888888889,0,0,0.03888888888888889,43.47777777777778,0)" xlink:href="#aF"/><use transform="matrix(0.03888888888888889,0,0,0.03888888888888889,51.25555555555555,0)" xlink:href="#av"/><use transform="matrix(0.03888888888888889,0,0,0.03888888888888889,59.03333333333333,0)" xlink:href="#az"/><use transform="matrix(0.03888888888888889,0,0,0.03888888888888889,63.66111111111112,0)" xlink:href="#aA"/></g><path d="M185-189c-5-48-123-54-124 2 14 75 158 14 163 119 3 78-121 87-175 55-17-10-28-26-33-46l33-7c5 56 141 63 141-1 0-78-155-14-162-118-5-82 145-84 179-34 5 7 8 16 11 25" id="aG"/><path d="M0 4l72-265h28L28 4H0" id="aH"/><path d="M30 0v-248h187v28H63v79h144v27H63v87h162V0H30" id="aI"/><path d="M117-194c89-4 53 116 60 194h-32v-121c0-31-8-49-39-48C34-167 62-67 57 0H25l-1-190h30c1 10-1 24 2 32 11-22 29-35 61-36" id="aJ"/><path d="M85-194c31 0 48 13 60 33l-1-100h32l1 261h-30c-2-10 0-23-3-31C134-8 116 4 85 4 32 4 16-35 15-94c0-66 23-100 70-100zm9 24c-40 0-46 34-46 75 0 40 6 74 45 74 42 0 51-32 51-76 0-42-9-74-50-73" id="aK"/><g id="i"><use transform="matrix(0.03888888888888889,0,0,0.03888888888888889,0,0)" xlink:href="#aG"/><use transform="matrix(0.03888888888888889,0,0,0.03888888888888889,9.333333333333334,0)" xlink:href="#ax"/><use transform="matrix(0.03888888888888889,0,0,0.03888888888888889,13.222222222222223,0)" xlink:href="#aw"/><use transform="matrix(0.03888888888888889,0,0,0.03888888888888889,21,0)" xlink:href="#az"/><use transform="matrix(0.03888888888888889,0,0,0.03888888888888889,25.627777777777776,0)" xlink:href="#ax"/><use transform="matrix(0.03888888888888889,0,0,0.03888888888888889,29.516666666666666,0)" xlink:href="#aH"/><use transform="matrix(0.03888888888888889,0,0,0.03888888888888889,33.40555555555556,0)" xlink:href="#aI"/><use transform="matrix(0.03888888888888889,0,0,0.03888888888888889,42.7388888888889,0)" xlink:href="#aJ"/><use transform="matrix(0.03888888888888889,0,0,0.03888888888888889,50.51666666666667,0)" xlink:href="#aK"/></g><g id="j"><use transform="matrix(0.03888888888888889,0,0,0.03888888888888889,0,0)" xlink:href="#aB"/><use transform="matrix(0.03888888888888889,0,0,0.03888888888888889,10.072222222222223,0)" xlink:href="#aw"/><use transform="matrix(0.03888888888888889,0,0,0.03888888888888889,17.85,0)" xlink:href="#ax"/><use transform="matrix(0.03888888888888889,0,0,0.03888888888888889,21.73888888888889,0)" xlink:href="#av"/></g><path d="M127-220V0H93v-220H8v-28h204v28h-85" id="aL"/><path d="M96-169c-40 0-48 33-48 73s9 75 48 75c24 0 41-14 43-38l32 2c-6 37-31 61-74 61-59 0-76-41-82-99-10-93 101-131 147-64 4 7 5 14 7 22l-32 3c-4-21-16-35-41-35" id="aM"/><path d="M106-169C34-169 62-67 57 0H25v-261h32l-1 103c12-21 28-36 61-36 89 0 53 116 60 194h-32v-121c2-32-8-49-39-48" id="aN"/><g id="k"><use transform="matrix(0.03888888888888889,0,0,0.03888888888888889,0,0)" xlink:href="#aL"/><use transform="matrix(0.03888888888888889,0,0,0.03888888888888889,6.961111111111112,0)" xlink:href="#av"/><use transform="matrix(0.03888888888888889,0,0,0.03888888888888889,14.73888888888889,0)" xlink:href="#aM"/><use transform="matrix(0.03888888888888889,0,0,0.03888888888888889,21.73888888888889,0)" xlink:href="#aN"/></g><path d="M143 0L79-87 56-68V0H24v-261h32v163l83-92h37l-77 82L181 0h-38" id="aO"/><g id="l"><use transform="matrix(0.03888888888888889,0,0,0.03888888888888889,0,0)" xlink:href="#aG"/><use transform="matrix(0.03888888888888889,0,0,0.03888888888888889,9.333333333333334,0)" xlink:href="#ax"/><use transform="matrix(0.03888888888888889,0,0,0.03888888888888889,13.222222222222223,0)" xlink:href="#aw"/><use transform="matrix(0.03888888888888889,0,0,0.03888888888888889,21,0)" xlink:href="#aM"/><use transform="matrix(0.03888888888888889,0,0,0.03888888888888889,28,0)" xlink:href="#aO"/></g><path d="M30-248c87 1 191-15 191 75 0 78-77 80-158 76V0H30v-248zm33 125c57 0 124 11 124-50 0-59-68-47-124-48v98" id="aP"/><path d="M24-231v-30h32v30H24zM-9 49c24 4 33-6 33-30v-209h32V24c2 40-23 58-65 49V49" id="aQ"/><g id="m"><use transform="matrix(0.03888888888888889,0,0,0.03888888888888889,0,0)" xlink:href="#aP"/><use transform="matrix(0.03888888888888889,0,0,0.03888888888888889,9.333333333333334,0)" xlink:href="#az"/><use transform="matrix(0.03888888888888889,0,0,0.03888888888888889,13.961111111111112,0)" xlink:href="#aE"/><use transform="matrix(0.03888888888888889,0,0,0.03888888888888889,21.73888888888889,0)" xlink:href="#aQ"/><use transform="matrix(0.03888888888888889,0,0,0.03888888888888889,24.81111111111111,0)" xlink:href="#av"/><use transform="matrix(0.03888888888888889,0,0,0.03888888888888889,32.58888888888889,0)" xlink:href="#aM"/><use transform="matrix(0.03888888888888889,0,0,0.03888888888888889,39.58888888888889,0)" xlink:href="#ax"/></g><path d="M24-231v-30h32v30H24zM24 0v-190h32V0H24" id="aR"/><g id="n"><use transform="matrix(0.03888888888888889,0,0,0.03888888888888889,0,0)" xlink:href="#aB"/><use transform="matrix(0.03888888888888889,0,0,0.03888888888888889,10.072222222222223,0)" xlink:href="#av"/><use transform="matrix(0.03888888888888889,0,0,0.03888888888888889,17.85,0)" xlink:href="#aA"/><use transform="matrix(0.03888888888888889,0,0,0.03888888888888889,24.85,0)" xlink:href="#aM"/><use transform="matrix(0.03888888888888889,0,0,0.03888888888888889,31.85,0)" xlink:href="#az"/><use transform="matrix(0.03888888888888889,0,0,0.03888888888888889,36.47777777777778,0)" xlink:href="#aR"/><use transform="matrix(0.03888888888888889,0,0,0.03888888888888889,39.550000000000004,0)" xlink:href="#aF"/><use transform="matrix(0.03888888888888889,0,0,0.03888888888888889,47.327777777777776,0)" xlink:href="#ax"/><use transform="matrix(0.03888888888888889,0,0,0.03888888888888889,51.21666666666667,0)" xlink:href="#aR"/><use transform="matrix(0.03888888888888889,0,0,0.03888888888888889,54.28888888888889,0)" xlink:href="#aE"/><use transform="matrix(0.03888888888888889,0,0,0.03888888888888889,62.06666666666667,0)" xlink:href="#aJ"/></g><path fill="#3a414a" d="M153-248C145-148 188 4 80 4 36 3 13-21 6-62l32-5c4 25 16 42 43 43 27 0 39-20 39-49v-147H72v-28h81" id="aS"/><g id="p"><use transform="matrix(0.06172839506172839,0,0,0.06172839506172839,0,0)" xlink:href="#aS"/><use transform="matrix(0.06172839506172839,0,0,0.06172839506172839,11.11111111111111,0)" xlink:href="#Y"/><use transform="matrix(0.06172839506172839,0,0,0.06172839506172839,15.987654320987653,0)" xlink:href="#ac"/><use transform="matrix(0.06172839506172839,0,0,0.06172839506172839,23.333333333333332,0)" xlink:href="#T"/></g><path fill="#3a414a" d="M232-93c-1 65-40 97-104 97C67 4 28-28 28-90v-158h33c8 89-33 224 67 224 102 0 64-133 71-224h33v155" id="aT"/><path fill="#3a414a" d="M33 0v-248h34V0H33" id="aU"/><g id="q"><use transform="matrix(0.06172839506172839,0,0,0.06172839506172839,0,0)" xlink:href="#aT"/><use transform="matrix(0.06172839506172839,0,0,0.06172839506172839,15.987654320987653,0)" xlink:href="#aU"/></g><path fill="#3a414a" d="M127-220V0H93v-220H8v-28h204v28h-85" id="aV"/><path fill="#3a414a" d="M210-169c-67 3-38 105-44 169h-31v-121c0-29-5-50-35-48C34-165 62-65 56 0H25l-1-190h30c1 10-1 24 2 32 10-44 99-50 107 0 11-21 27-35 58-36 85-2 47 119 55 194h-31v-121c0-29-5-49-35-48" id="aW"/><path fill="#3a414a" d="M24 0v-261h32V0H24" id="aX"/><g id="r"><use transform="matrix(0.06172839506172839,0,0,0.06172839506172839,0,0)" xlink:href="#aV"/><use transform="matrix(0.06172839506172839,0,0,0.06172839506172839,12.716049382716047,0)" xlink:href="#Y"/><use transform="matrix(0.06172839506172839,0,0,0.06172839506172839,17.592592592592588,0)" xlink:href="#aW"/><use transform="matrix(0.06172839506172839,0,0,0.06172839506172839,36.04938271604938,0)" xlink:href="#ae"/><use transform="matrix(0.06172839506172839,0,0,0.06172839506172839,48.395061728395056,0)" xlink:href="#aX"/><use transform="matrix(0.06172839506172839,0,0,0.06172839506172839,53.2716049382716,0)" xlink:href="#Y"/><use transform="matrix(0.06172839506172839,0,0,0.06172839506172839,58.148148148148145,0)" xlink:href="#U"/><use transform="matrix(0.06172839506172839,0,0,0.06172839506172839,70.49382716049382,0)" xlink:href="#ae"/></g><g id="s"><use transform="matrix(0.03703703703703702,0,0,0.03703703703703702,0,0)" xlink:href="#S"/><use transform="matrix(0.03703703703703702,0,0,0.03703703703703702,7.407407407407404,0)" xlink:href="#S"/><use transform="matrix(0.03703703703703702,0,0,0.03703703703703702,14.814814814814808,0)" xlink:href="#Z"/></g><path fill="#3a414a" d="M59-47c-2 24 18 29 38 22v24C64 9 27 4 27-40v-127H5v-23h24l9-43h21v43h35v23H59v120" id="aY"/><path fill="#3a414a" d="M85-194c31 0 48 13 60 33l-1-100h32l1 261h-30c-2-10 0-23-3-31C134-8 116 4 85 4 32 4 16-35 15-94c0-66 23-100 70-100zm9 24c-40 0-46 34-46 75 0 40 6 74 45 74 42 0 51-32 51-76 0-42-9-74-50-73" id="aZ"/><g id="t"><use transform="matrix(0.03703703703703702,0,0,0.03703703703703702,0,0)" xlink:href="#V"/><use transform="matrix(0.03703703703703702,0,0,0.03703703703703702,7.407407407407404,0)" xlink:href="#ae"/><use transform="matrix(0.03703703703703702,0,0,0.03703703703703702,14.814814814814808,0)" xlink:href="#U"/><use transform="matrix(0.03703703703703702,0,0,0.03703703703703702,22.222222222222214,0)" xlink:href="#ae"/><use transform="matrix(0.03703703703703702,0,0,0.03703703703703702,29.629629629629616,0)" xlink:href="#ac"/><use transform="matrix(0.03703703703703702,0,0,0.03703703703703702,34.037037037037024,0)" xlink:href="#T"/><use transform="matrix(0.03703703703703702,0,0,0.03703703703703702,41.44444444444443,0)" xlink:href="#aY"/><use transform="matrix(0.03703703703703702,0,0,0.03703703703703702,45.14814814814813,0)" xlink:href="#ae"/><use transform="matrix(0.03703703703703702,0,0,0.03703703703703702,52.555555555555536,0)" xlink:href="#aZ"/></g><path fill="#3a414a" d="M143 0L79-87 56-68V0H24v-261h32v163l83-92h37l-77 82L181 0h-38" id="ba"/><g id="u"><use transform="matrix(0.03703703703703702,0,0,0.03703703703703702,0,0)" xlink:href="#aY"/><use transform="matrix(0.03703703703703702,0,0,0.03703703703703702,3.703703703703702,0)" xlink:href="#T"/><use transform="matrix(0.03703703703703702,0,0,0.03703703703703702,11.111111111111107,0)" xlink:href="#af"/><use transform="matrix(0.03703703703703702,0,0,0.03703703703703702,17.777777777777768,0)" xlink:href="#ba"/><use transform="matrix(0.03703703703703702,0,0,0.03703703703703702,24.444444444444432,0)" xlink:href="#af"/></g><path fill="#333" d="M135-194c53 0 70 44 70 98 0 56-19 98-73 100-31 1-45-17-59-34 3 33 2 69 2 105H25l-1-265h48c2 10 0 23 3 31 11-24 29-35 60-35zM114-30c33 0 39-31 40-66 0-38-9-64-40-64-56 0-55 130 0 130" id="bb"/><path fill="#333" d="M25 0v-261h50V0H25" id="bc"/><path fill="#333" d="M133-34C117-15 103 5 69 4 32 3 11-16 11-54c-1-60 55-63 116-61 1-26-3-47-28-47-18 1-26 9-28 27l-52-2c7-38 36-58 82-57s74 22 75 68l1 82c-1 14 12 18 25 15v27c-30 8-71 5-69-32zm-48 3c29 0 43-24 42-57-32 0-66-3-65 30 0 17 8 27 23 27" id="bd"/><path fill="#333" d="M135-194c87-1 58 113 63 194h-50c-7-57 23-157-34-157-59 0-34 97-39 157H25l-1-190h47c2 12-1 28 3 38 12-26 28-41 61-42" id="be"/><path fill="#333" d="M24 0v-248h52V0H24" id="bf"/><path fill="#333" d="M121-226c-27-7-43 5-38 36h38v33H83V0H34v-157H6v-33h28c-9-59 32-81 87-68v32" id="bg"/><path fill="#333" d="M110-194c64 0 96 36 96 99 0 64-35 99-97 99-61 0-95-36-95-99 0-62 34-99 96-99zm-1 164c35 0 45-28 45-65 0-40-10-65-43-65-34 0-45 26-45 65 0 36 10 65 43 65" id="bh"/><g id="v"><use transform="matrix(0.04938271604938272,0,0,0.04938271604938272,0,0)" xlink:href="#bb"/><use transform="matrix(0.04938271604938272,0,0,0.04938271604938272,10.814814814814815,0)" xlink:href="#bc"/><use transform="matrix(0.04938271604938272,0,0,0.04938271604938272,15.753086419753087,0)" xlink:href="#bd"/><use transform="matrix(0.04938271604938272,0,0,0.04938271604938272,25.629629629629633,0)" xlink:href="#be"/><use transform="matrix(0.04938271604938272,0,0,0.04938271604938272,36.44444444444445,0)" xlink:href="#bf"/><use transform="matrix(0.04938271604938272,0,0,0.04938271604938272,41.38271604938272,0)" xlink:href="#be"/><use transform="matrix(0.04938271604938272,0,0,0.04938271604938272,52.19753086419754,0)" xlink:href="#bg"/><use transform="matrix(0.04938271604938272,0,0,0.04938271604938272,58.074074074074076,0)" xlink:href="#bh"/></g><g id="w"><use transform="matrix(0.06172839506172839,0,0,0.06172839506172839,0,0)" xlink:href="#aT"/><use transform="matrix(0.06172839506172839,0,0,0.06172839506172839,15.987654320987653,0)" xlink:href="#aU"/></g><path fill="#3a414a" d="M233-177c-1 41-23 64-60 70L243 0h-38l-65-103H63V0H30v-248c88 3 205-21 203 71zM63-129c60-2 137 13 137-47 0-61-80-42-137-45v92" id="bi"/><path fill="#3a414a" d="M108 0H70L1-190h34L89-25l56-165h34" id="bj"/><g id="x"><use transform="matrix(0.06172839506172839,0,0,0.06172839506172839,0,0)" xlink:href="#bi"/><use transform="matrix(0.06172839506172839,0,0,0.06172839506172839,15.987654320987653,0)" xlink:href="#ae"/><use transform="matrix(0.06172839506172839,0,0,0.06172839506172839,28.333333333333332,0)" xlink:href="#af"/><use transform="matrix(0.06172839506172839,0,0,0.06172839506172839,39.44444444444444,0)" xlink:href="#ad"/><use transform="matrix(0.06172839506172839,0,0,0.06172839506172839,51.79012345679012,0)" xlink:href="#aX"/><use transform="matrix(0.06172839506172839,0,0,0.06172839506172839,56.666666666666664,0)" xlink:href="#bj"/><use transform="matrix(0.06172839506172839,0,0,0.06172839506172839,67.77777777777777,0)" xlink:href="#ae"/><use transform="matrix(0.06172839506172839,0,0,0.06172839506172839,80.12345679012346,0)" xlink:href="#ac"/></g><path fill="#3a414a" d="M205 0l-28-72H64L36 0H1l101-248h38L239 0h-34zm-38-99l-47-123c-12 45-31 82-46 123h93" id="bk"/><path fill="#3a414a" d="M179-190L93 31C79 59 56 82 12 73V49c39 6 53-20 64-50L1-190h34L92-34l54-156h33" id="bl"/><g id="y"><use transform="matrix(0.06172839506172839,0,0,0.06172839506172839,0,0)" xlink:href="#bk"/><use transform="matrix(0.06172839506172839,0,0,0.06172839506172839,14.814814814814813,0)" xlink:href="#af"/><use transform="matrix(0.06172839506172839,0,0,0.06172839506172839,25.925925925925924,0)" xlink:href="#bl"/><use transform="matrix(0.06172839506172839,0,0,0.06172839506172839,37.03703703703704,0)" xlink:href="#U"/><use transform="matrix(0.06172839506172839,0,0,0.06172839506172839,49.382716049382715,0)" xlink:href="#W"/></g><path fill="#333" d="M24-248c93 1 206-16 204 79-1 75-69 88-152 82V0H24v-248zm52 121c47 0 100 7 100-41 0-47-54-39-100-39v80" id="bm"/><path fill="#333" d="M240-174c0 40-23 61-54 70L253 0h-59l-57-94H76V0H24v-248c93 4 217-23 216 74zM76-134c48-2 112 12 112-38 0-48-66-32-112-35v73" id="bn"/><path fill="#333" d="M185-48c-13 30-37 53-82 52C43 2 14-33 14-96s30-98 90-98c62 0 83 45 84 108H66c0 31 8 55 39 56 18 0 30-7 34-22zm-45-69c5-46-57-63-70-21-2 6-4 13-4 21h74" id="bo"/><path fill="#333" d="M137-138c1-29-70-34-71-4 15 46 118 7 119 86 1 83-164 76-172 9l43-7c4 19 20 25 44 25 33 8 57-30 24-41C81-84 22-81 20-136c-2-80 154-74 161-7" id="bp"/><path fill="#333" d="M85 4C-2 5 27-109 22-190h50c7 57-23 150 33 157 60-5 35-97 40-157h50l1 190h-47c-2-12 1-28-3-38-12 25-28 42-61 42" id="bq"/><path fill="#333" d="M115-3C79 11 28 4 28-45v-112H4v-33h27l15-45h31v45h36v33H77v99c-1 23 16 31 38 25v30" id="br"/><g id="z"><use transform="matrix(0.04938271604938272,0,0,0.04938271604938272,0,0)" xlink:href="#bb"/><use transform="matrix(0.04938271604938272,0,0,0.04938271604938272,10.814814814814815,0)" xlink:href="#bh"/><use transform="matrix(0.04938271604938272,0,0,0.04938271604938272,21.62962962962963,0)" xlink:href="#bc"/><use transform="matrix(0.04938271604938272,0,0,0.04938271604938272,26.567901234567902,0)" xlink:href="#bc"/><use transform="matrix(0.04938271604938272,0,0,0.04938271604938272,31.506172839506174,0)" xlink:href="#bm"/><use transform="matrix(0.04938271604938272,0,0,0.04938271604938272,43.358024691358025,0)" xlink:href="#bc"/><use transform="matrix(0.04938271604938272,0,0,0.04938271604938272,48.2962962962963,0)" xlink:href="#bd"/><use transform="matrix(0.04938271604938272,0,0,0.04938271604938272,58.17283950617284,0)" xlink:href="#be"/><use transform="matrix(0.04938271604938272,0,0,0.04938271604938272,68.98765432098766,0)" xlink:href="#bn"/><use transform="matrix(0.04938271604938272,0,0,0.04938271604938272,81.77777777777779,0)" xlink:href="#bo"/><use transform="matrix(0.04938271604938272,0,0,0.04938271604938272,91.65432098765433,0)" xlink:href="#bp"/><use transform="matrix(0.04938271604938272,0,0,0.04938271604938272,101.53086419753087,0)" xlink:href="#bq"/><use transform="matrix(0.04938271604938272,0,0,0.04938271604938272,112.34567901234568,0)" xlink:href="#bc"/><use transform="matrix(0.04938271604938272,0,0,0.04938271604938272,117.28395061728394,0)" xlink:href="#br"/></g><path fill="#333" d="M169-182c-1-43-94-46-97-3 18 66 151 10 154 114 3 95-165 93-204 36-6-8-10-19-12-30l50-8c3 46 112 56 116 5-17-69-150-10-154-114-4-87 153-88 188-35 5 8 8 18 10 28" id="bs"/><g id="A"><use transform="matrix(0.04938271604938272,0,0,0.04938271604938272,0,0)" xlink:href="#bb"/><use transform="matrix(0.04938271604938272,0,0,0.04938271604938272,10.814814814814815,0)" xlink:href="#bc"/><use transform="matrix(0.04938271604938272,0,0,0.04938271604938272,15.753086419753087,0)" xlink:href="#bd"/><use transform="matrix(0.04938271604938272,0,0,0.04938271604938272,25.629629629629633,0)" xlink:href="#be"/><use transform="matrix(0.04938271604938272,0,0,0.04938271604938272,36.44444444444445,0)" xlink:href="#bs"/><use transform="matrix(0.04938271604938272,0,0,0.04938271604938272,48.296296296296305,0)" xlink:href="#br"/><use transform="matrix(0.04938271604938272,0,0,0.04938271604938272,54.17283950617284,0)" xlink:href="#bd"/><use transform="matrix(0.04938271604938272,0,0,0.04938271604938272,64.0493827160494,0)" xlink:href="#br"/><use transform="matrix(0.04938271604938272,0,0,0.04938271604938272,69.92592592592594,0)" xlink:href="#bq"/><use transform="matrix(0.04938271604938272,0,0,0.04938271604938272,80.74074074074075,0)" xlink:href="#bp"/></g><path fill="#3a414a" d="M140-251c81 0 123 46 123 126C263-53 228-8 163 1c7 30 30 48 69 40v23c-55 16-95-15-103-61C56-3 17-48 17-125c0-80 42-126 123-126zm0 227c63 0 89-41 89-101s-29-99-89-99c-61 0-89 39-89 99S79-25 140-24" id="bt"/><path fill="#3a414a" d="M84 4C-5 8 30-112 23-190h32v120c0 31 7 50 39 49 72-2 45-101 50-169h31l1 190h-30c-1-10 1-25-2-33-11 22-28 36-60 37" id="bu"/><g id="B"><use transform="matrix(0.06172839506172839,0,0,0.06172839506172839,0,0)" xlink:href="#bt"/><use transform="matrix(0.06172839506172839,0,0,0.06172839506172839,17.28395061728395,0)" xlink:href="#bu"/><use transform="matrix(0.06172839506172839,0,0,0.06172839506172839,29.629629629629626,0)" xlink:href="#ae"/><use transform="matrix(0.06172839506172839,0,0,0.06172839506172839,41.9753086419753,0)" xlink:href="#bu"/><use transform="matrix(0.06172839506172839,0,0,0.06172839506172839,54.32098765432098,0)" xlink:href="#ae"/></g><path fill="#333" d="M135-194c52 0 70 43 70 98 0 56-19 99-73 100-30 1-46-15-58-35L72 0H24l1-261h50v104c11-23 29-37 60-37zM114-30c31 0 40-27 40-66 0-37-7-63-39-63s-41 28-41 65c0 36 8 64 40 64" id="bv"/><path fill="#333" d="M25-224v-37h50v37H25zM25 0v-190h50V0H25" id="bw"/><path fill="#333" d="M88-194c31-1 46 15 58 34l-1-101h50l1 261h-48c-2-10 0-23-3-31C134-8 116 4 84 4 32 4 16-41 15-95c0-56 19-97 73-99zm17 164c33 0 40-30 41-66 1-37-9-64-41-64s-38 30-39 65c0 43 13 65 39 65" id="bx"/><path fill="#333" d="M135-150c-39-12-60 13-60 57V0H25l-1-190h47c2 13-1 29 3 40 6-28 27-53 61-41v41" id="by"/><path fill="#333" d="M25-224v-37h50v37H25zM75 22c2 45-34 59-81 51V38c22 5 31-5 31-27v-201h50V22" id="bz"/><path fill="#333" d="M190-63c-7 42-38 67-86 67-59 0-84-38-90-98-12-110 154-137 174-36l-49 2c-2-19-15-32-35-32-30 0-35 28-38 64-6 74 65 87 74 30" id="bA"/><g id="C"><use transform="matrix(0.04938271604938272,0,0,0.04938271604938272,0,0)" xlink:href="#bv"/><use transform="matrix(0.04938271604938272,0,0,0.04938271604938272,10.814814814814815,0)" xlink:href="#bq"/><use transform="matrix(0.04938271604938272,0,0,0.04938271604938272,21.62962962962963,0)" xlink:href="#bw"/><use transform="matrix(0.04938271604938272,0,0,0.04938271604938272,26.567901234567902,0)" xlink:href="#bc"/><use transform="matrix(0.04938271604938272,0,0,0.04938271604938272,31.506172839506174,0)" xlink:href="#bx"/><use transform="matrix(0.04938271604938272,0,0,0.04938271604938272,42.32098765432099,0)" xlink:href="#bm"/><use transform="matrix(0.04938271604938272,0,0,0.04938271604938272,54.17283950617284,0)" xlink:href="#by"/><use transform="matrix(0.04938271604938272,0,0,0.04938271604938272,61.086419753086425,0)" xlink:href="#bh"/><use transform="matrix(0.04938271604938272,0,0,0.04938271604938272,71.90123456790124,0)" xlink:href="#bz"/><use transform="matrix(0.04938271604938272,0,0,0.04938271604938272,76.83950617283952,0)" xlink:href="#bo"/><use transform="matrix(0.04938271604938272,0,0,0.04938271604938272,86.71604938271606,0)" xlink:href="#bA"/><use transform="matrix(0.04938271604938272,0,0,0.04938271604938272,96.59259259259261,0)" xlink:href="#br"/><use transform="matrix(0.04938271604938272,0,0,0.04938271604938272,102.46913580246914,0)" xlink:href="#bm"/><use transform="matrix(0.04938271604938272,0,0,0.04938271604938272,114.320987654321,0)" xlink:href="#bc"/><use transform="matrix(0.04938271604938272,0,0,0.04938271604938272,119.25925925925927,0)" xlink:href="#bd"/><use transform="matrix(0.04938271604938272,0,0,0.04938271604938272,129.1358024691358,0)" xlink:href="#be"/></g><path fill="#333" d="M24 0v-248h52v208h133V0H24" id="bB"/><g id="D"><use transform="matrix(0.04938271604938272,0,0,0.04938271604938272,0,0)" xlink:href="#bb"/><use transform="matrix(0.04938271604938272,0,0,0.04938271604938272,10.814814814814815,0)" xlink:href="#bc"/><use transform="matrix(0.04938271604938272,0,0,0.04938271604938272,15.753086419753087,0)" xlink:href="#bd"/><use transform="matrix(0.04938271604938272,0,0,0.04938271604938272,25.629629629629633,0)" xlink:href="#be"/><use transform="matrix(0.04938271604938272,0,0,0.04938271604938272,36.44444444444445,0)" xlink:href="#bB"/><use transform="matrix(0.04938271604938272,0,0,0.04938271604938272,47.25925925925927,0)" xlink:href="#bw"/><use transform="matrix(0.04938271604938272,0,0,0.04938271604938272,52.19753086419754,0)" xlink:href="#bp"/><use transform="matrix(0.04938271604938272,0,0,0.04938271604938272,62.074074074074076,0)" xlink:href="#br"/><use transform="matrix(0.04938271604938272,0,0,0.04938271604938272,67.95061728395062,0)" xlink:href="#bo"/><use transform="matrix(0.04938271604938272,0,0,0.04938271604938272,77.82716049382717,0)" xlink:href="#be"/><use transform="matrix(0.04938271604938272,0,0,0.04938271604938272,88.64197530864197,0)" xlink:href="#bo"/><use transform="matrix(0.04938271604938272,0,0,0.04938271604938272,98.51851851851852,0)" xlink:href="#by"/></g><path fill="#333" d="M195-6C206 82 75 100 31 46c-4-6-6-13-8-21l49-6c3 16 16 24 34 25 40 0 42-37 40-79-11 22-30 35-61 35-53 0-70-43-70-97 0-56 18-96 73-97 30 0 46 14 59 34l2-30h47zm-90-29c32 0 41-27 41-63 0-35-9-62-40-62-32 0-39 29-40 63 0 36 9 62 39 62" id="bC"/><g id="E"><use transform="matrix(0.04938271604938272,0,0,0.04938271604938272,0,0)" xlink:href="#bC"/><use transform="matrix(0.04938271604938272,0,0,0.04938271604938272,10.814814814814815,0)" xlink:href="#bo"/><use transform="matrix(0.04938271604938272,0,0,0.04938271604938272,20.69135802469136,0)" xlink:href="#be"/><use transform="matrix(0.04938271604938272,0,0,0.04938271604938272,31.506172839506174,0)" xlink:href="#bo"/><use transform="matrix(0.04938271604938272,0,0,0.04938271604938272,41.38271604938272,0)" xlink:href="#by"/><use transform="matrix(0.04938271604938272,0,0,0.04938271604938272,48.296296296296305,0)" xlink:href="#bd"/><use transform="matrix(0.04938271604938272,0,0,0.04938271604938272,58.17283950617284,0)" xlink:href="#br"/><use transform="matrix(0.04938271604938272,0,0,0.04938271604938272,64.0493827160494,0)" xlink:href="#bo"/><use transform="matrix(0.04938271604938272,0,0,0.04938271604938272,73.92592592592594,0)" xlink:href="#bm"/><use transform="matrix(0.04938271604938272,0,0,0.04938271604938272,85.77777777777779,0)" xlink:href="#bc"/><use transform="matrix(0.04938271604938272,0,0,0.04938271604938272,90.71604938271605,0)" xlink:href="#bd"/><use transform="matrix(0.04938271604938272,0,0,0.04938271604938272,100.5925925925926,0)" xlink:href="#be"/><use transform="matrix(0.04938271604938272,0,0,0.04938271604938272,111.40740740740739,0)" xlink:href="#bf"/><use transform="matrix(0.04938271604938272,0,0,0.04938271604938272,116.34567901234567,0)" xlink:href="#bp"/><use transform="matrix(0.04938271604938272,0,0,0.04938271604938272,126.22222222222221,0)" xlink:href="#bp"/><use transform="matrix(0.04938271604938272,0,0,0.04938271604938272,136.09876543209876,0)" xlink:href="#bq"/><use transform="matrix(0.04938271604938272,0,0,0.04938271604938272,146.91358024691357,0)" xlink:href="#bo"/><use transform="matrix(0.04938271604938272,0,0,0.04938271604938272,156.79012345679013,0)" xlink:href="#bp"/></g><path fill="#3a414a" d="M115-194c55 1 70 41 70 98S169 2 115 4C84 4 66-9 55-30l1 105H24l-1-265h31l2 30c10-21 28-34 59-34zm-8 174c40 0 45-34 45-75s-6-73-45-74c-42 0-51 32-51 76 0 43 10 73 51 73" id="bD"/><path fill="#3a414a" d="M101-251c82-7 93 87 43 132L82-64C71-53 59-42 53-27h129V0H18c2-99 128-94 128-182 0-28-16-43-45-43s-46 15-49 41l-32-3c6-41 34-60 81-64" id="bE"/><g id="F"><use transform="matrix(0.06172839506172839,0,0,0.06172839506172839,0,0)" xlink:href="#ab"/><use transform="matrix(0.06172839506172839,0,0,0.06172839506172839,14.814814814814813,0)" xlink:href="#ac"/><use transform="matrix(0.06172839506172839,0,0,0.06172839506172839,22.160493827160494,0)" xlink:href="#ad"/><use transform="matrix(0.06172839506172839,0,0,0.06172839506172839,34.50617283950617,0)" xlink:href="#aW"/><use transform="matrix(0.06172839506172839,0,0,0.06172839506172839,52.96296296296296,0)" xlink:href="#bD"/><use transform="matrix(0.06172839506172839,0,0,0.06172839506172839,65.30864197530865,0)" xlink:href="#aY"/><use transform="matrix(0.06172839506172839,0,0,0.06172839506172839,71.48148148148148,0)" xlink:href="#bE"/></g><path fill="#3a414a" d="M143 4C61 4 22-44 18-125c-5-107 100-154 193-111 17 8 29 25 37 43l-32 9c-13-25-37-40-76-40-61 0-88 39-88 99 0 61 29 100 91 101 35 0 62-11 79-27v-45h-74v-28h105v86C228-13 192 4 143 4" id="bF"/><path fill="#3a414a" d="M126-127c33 6 58 20 58 59 0 88-139 92-164 29-3-8-5-16-6-25l32-3c6 27 21 44 54 44 32 0 52-15 52-46 0-38-36-46-79-43v-28c39 1 72-4 72-42 0-27-17-43-46-43-28 0-47 15-49 41l-32-3c6-42 35-63 81-64 48-1 79 21 79 65 0 36-21 52-52 59" id="bG"/><path fill="#3a414a" d="M33 0v-38h34V0H33" id="bH"/><path fill="#3a414a" d="M54-142c48-35 137-8 131 61C196 18 31 33 14-55l32-4c7 23 22 37 52 37 35-1 51-22 54-58 4-55-73-65-99-34H22l8-134h141v27H59" id="bI"/><g id="G"><use transform="matrix(0.06172839506172839,0,0,0.06172839506172839,0,0)" xlink:href="#bF"/><use transform="matrix(0.06172839506172839,0,0,0.06172839506172839,17.28395061728395,0)" xlink:href="#ab"/><use transform="matrix(0.06172839506172839,0,0,0.06172839506172839,32.09876543209876,0)" xlink:href="#aV"/><use transform="matrix(0.06172839506172839,0,0,0.06172839506172839,45.61728395061728,0)" xlink:href="#bG"/><use transform="matrix(0.06172839506172839,0,0,0.06172839506172839,57.962962962962955,0)" xlink:href="#bH"/><use transform="matrix(0.06172839506172839,0,0,0.06172839506172839,64.1358024691358,0)" xlink:href="#bI"/></g><path fill="#3a414a" d="M185-189c-5-48-123-54-124 2 14 75 158 14 163 119 3 78-121 87-175 55-17-10-28-26-33-46l33-7c5 56 141 63 141-1 0-78-155-14-162-118-5-82 145-84 179-34 5 7 8 16 11 25" id="bJ"/><g id="H"><use transform="matrix(0.06172839506172839,0,0,0.06172839506172839,0,0)" xlink:href="#bJ"/><use transform="matrix(0.06172839506172839,0,0,0.06172839506172839,14.814814814814813,0)" xlink:href="#aY"/><use transform="matrix(0.06172839506172839,0,0,0.06172839506172839,20.98765432098765,0)" xlink:href="#ac"/><use transform="matrix(0.06172839506172839,0,0,0.06172839506172839,28.33333333333333,0)" xlink:href="#ab"/><use transform="matrix(0.06172839506172839,0,0,0.06172839506172839,43.14814814814814,0)" xlink:href="#T"/><use transform="matrix(0.06172839506172839,0,0,0.06172839506172839,55.493827160493815,0)" xlink:href="#ac"/><use transform="matrix(0.06172839506172839,0,0,0.06172839506172839,62.83950617283949,0)" xlink:href="#af"/><use transform="matrix(0.06172839506172839,0,0,0.06172839506172839,73.9506172839506,0)" xlink:href="#ae"/><use transform="matrix(0.06172839506172839,0,0,0.06172839506172839,86.29629629629629,0)" xlink:href="#ac"/></g><path fill="#3a414a" d="M27 0v-27h64v-190l-56 39v-29l58-41h29v221h61V0H27" id="bK"/><g id="I"><use transform="matrix(0.06172839506172839,0,0,0.06172839506172839,0,0)" xlink:href="#ab"/><use transform="matrix(0.06172839506172839,0,0,0.06172839506172839,14.814814814814813,0)" xlink:href="#ac"/><use transform="matrix(0.06172839506172839,0,0,0.06172839506172839,22.160493827160494,0)" xlink:href="#ad"/><use transform="matrix(0.06172839506172839,0,0,0.06172839506172839,34.50617283950617,0)" xlink:href="#aW"/><use transform="matrix(0.06172839506172839,0,0,0.06172839506172839,52.96296296296296,0)" xlink:href="#bD"/><use transform="matrix(0.06172839506172839,0,0,0.06172839506172839,65.30864197530865,0)" xlink:href="#aY"/><use transform="matrix(0.06172839506172839,0,0,0.06172839506172839,71.48148148148148,0)" xlink:href="#bK"/></g><g id="J"><use transform="matrix(0.06172839506172839,0,0,0.06172839506172839,0,0)" xlink:href="#ab"/><use transform="matrix(0.06172839506172839,0,0,0.06172839506172839,14.814814814814813,0)" xlink:href="#ac"/><use transform="matrix(0.06172839506172839,0,0,0.06172839506172839,22.160493827160494,0)" xlink:href="#ad"/><use transform="matrix(0.06172839506172839,0,0,0.06172839506172839,34.50617283950617,0)" xlink:href="#aW"/><use transform="matrix(0.06172839506172839,0,0,0.06172839506172839,52.96296296296296,0)" xlink:href="#bD"/><use transform="matrix(0.06172839506172839,0,0,0.06172839506172839,65.30864197530865,0)" xlink:href="#aY"/><use transform="matrix(0.06172839506172839,0,0,0.06172839506172839,71.48148148148148,0)" xlink:href="#bG"/></g><path fill="#3a414a" d="M101-234c-31-9-42 10-38 44h38v23H63V0H32v-167H5v-23h27c-7-52 17-82 69-68v24" id="bL"/><g id="K"><use transform="matrix(0.06172839506172839,0,0,0.06172839506172839,0,0)" xlink:href="#bD"/><use transform="matrix(0.06172839506172839,0,0,0.06172839506172839,12.345679012345679,0)" xlink:href="#aX"/><use transform="matrix(0.06172839506172839,0,0,0.06172839506172839,17.22222222222222,0)" xlink:href="#T"/><use transform="matrix(0.06172839506172839,0,0,0.06172839506172839,29.5679012345679,0)" xlink:href="#U"/><use transform="matrix(0.06172839506172839,0,0,0.06172839506172839,41.913580246913575,0)" xlink:href="#aU"/><use transform="matrix(0.06172839506172839,0,0,0.06172839506172839,48.08641975308642,0)" xlink:href="#U"/><use transform="matrix(0.06172839506172839,0,0,0.06172839506172839,60.432098765432094,0)" xlink:href="#bL"/><use transform="matrix(0.06172839506172839,0,0,0.06172839506172839,66.60493827160494,0)" xlink:href="#ad"/></g><path fill="#333" d="M220-157c-53 9-28 100-34 157h-49v-107c1-27-5-49-29-50C55-147 81-57 75 0H25l-1-190h47c2 12-1 28 3 38 10-53 101-56 108 0 13-22 24-43 59-42 82 1 51 116 57 194h-49v-107c-1-25-5-48-29-50" id="bM"/><path fill="#333" d="M-4 44V30h207v14H-4" id="bN"/><g id="L"><use transform="matrix(0.04938271604938272,0,0,0.04938271604938272,0,0)" xlink:href="#bb"/><use transform="matrix(0.04938271604938272,0,0,0.04938271604938272,10.814814814814815,0)" xlink:href="#by"/><use transform="matrix(0.04938271604938272,0,0,0.04938271604938272,17.728395061728396,0)" xlink:href="#bh"/><use transform="matrix(0.04938271604938272,0,0,0.04938271604938272,28.543209876543205,0)" xlink:href="#bv"/><use transform="matrix(0.04938271604938272,0,0,0.04938271604938272,39.358024691358025,0)" xlink:href="#bc"/><use transform="matrix(0.04938271604938272,0,0,0.04938271604938272,44.2962962962963,0)" xlink:href="#bo"/><use transform="matrix(0.04938271604938272,0,0,0.04938271604938272,54.17283950617284,0)" xlink:href="#bM"/><use transform="matrix(0.04938271604938272,0,0,0.04938271604938272,69.97530864197532,0)" xlink:href="#bN"/><use transform="matrix(0.04938271604938272,0,0,0.04938271604938272,79.85185185185186,0)" xlink:href="#bx"/><use transform="matrix(0.04938271604938272,0,0,0.04938271604938272,90.66666666666667,0)" xlink:href="#bo"/><use transform="matrix(0.04938271604938272,0,0,0.04938271604938272,100.54320987654322,0)" xlink:href="#bp"/><use transform="matrix(0.04938271604938272,0,0,0.04938271604938272,110.41975308641976,0)" xlink:href="#bA"/><use transform="matrix(0.04938271604938272,0,0,0.04938271604938272,120.2962962962963,0)" xlink:href="#by"/><use transform="matrix(0.04938271604938272,0,0,0.04938271604938272,127.20987654320989,0)" xlink:href="#bw"/><use transform="matrix(0.04938271604938272,0,0,0.04938271604938272,132.14814814814815,0)" xlink:href="#bb"/><use transform="matrix(0.04938271604938272,0,0,0.04938271604938272,142.96296296296296,0)" xlink:href="#br"/><use transform="matrix(0.04938271604938272,0,0,0.04938271604938272,148.8395061728395,0)" xlink:href="#bw"/><use transform="matrix(0.04938271604938272,0,0,0.04938271604938272,153.77777777777777,0)" xlink:href="#bh"/><use transform="matrix(0.04938271604938272,0,0,0.04938271604938272,164.59259259259258,0)" xlink:href="#be"/></g><path fill="#3a414a" d="M16-82v-28h88v28H16" id="bO"/><path fill="#3a414a" d="M155-56V0h-30v-56H8v-25l114-167h33v167h35v25h-35zm-30-156c-27 46-58 90-88 131h88v-131" id="bP"/><g id="M"><use transform="matrix(0.06172839506172839,0,0,0.06172839506172839,0,0)" xlink:href="#bF"/><use transform="matrix(0.06172839506172839,0,0,0.06172839506172839,17.28395061728395,0)" xlink:href="#ab"/><use transform="matrix(0.06172839506172839,0,0,0.06172839506172839,32.09876543209876,0)" xlink:href="#aV"/><use transform="matrix(0.06172839506172839,0,0,0.06172839506172839,44.38271604938271,0)" xlink:href="#bO"/><use transform="matrix(0.06172839506172839,0,0,0.06172839506172839,51.728395061728385,0)" xlink:href="#bP"/></g><path fill="#3a414a" d="M140-251c81 0 123 46 123 126C263-46 219 4 140 4 59 4 17-45 17-125s42-126 123-126zm0 227c63 0 89-41 89-101s-29-99-89-99c-61 0-89 39-89 99S79-25 140-24" id="bQ"/><path fill="#3a414a" d="M190 0L58-211 59 0H30v-248h39L202-35l-2-213h31V0h-41" id="bR"/><g id="N"><use transform="matrix(0.06172839506172839,0,0,0.06172839506172839,0,0)" xlink:href="#aS"/><use transform="matrix(0.06172839506172839,0,0,0.06172839506172839,11.11111111111111,0)" xlink:href="#bJ"/><use transform="matrix(0.06172839506172839,0,0,0.06172839506172839,25.925925925925924,0)" xlink:href="#bQ"/><use transform="matrix(0.06172839506172839,0,0,0.06172839506172839,43.20987654320987,0)" xlink:href="#bR"/></g><g id="O"><use transform="matrix(0.06172839506172839,0,0,0.06172839506172839,0,0)" xlink:href="#ab"/><use transform="matrix(0.06172839506172839,0,0,0.06172839506172839,14.814814814814813,0)" xlink:href="#T"/><use transform="matrix(0.06172839506172839,0,0,0.06172839506172839,27.160493827160494,0)" xlink:href="#ac"/><use transform="matrix(0.06172839506172839,0,0,0.06172839506172839,34.50617283950617,0)" xlink:href="#af"/><use transform="matrix(0.06172839506172839,0,0,0.06172839506172839,45.61728395061728,0)" xlink:href="#ae"/><use transform="matrix(0.06172839506172839,0,0,0.06172839506172839,57.962962962962955,0)" xlink:href="#ac"/></g><g id="P"><use transform="matrix(0.04938271604938272,0,0,0.04938271604938272,0,0)" xlink:href="#bq"/><use transform="matrix(0.04938271604938272,0,0,0.04938271604938272,10.814814814814815,0)" xlink:href="#bb"/><use transform="matrix(0.04938271604938272,0,0,0.04938271604938272,21.62962962962963,0)" xlink:href="#bx"/><use transform="matrix(0.04938271604938272,0,0,0.04938271604938272,32.44444444444444,0)" xlink:href="#bd"/><use transform="matrix(0.04938271604938272,0,0,0.04938271604938272,42.32098765432099,0)" xlink:href="#br"/><use transform="matrix(0.04938271604938272,0,0,0.04938271604938272,48.19753086419753,0)" xlink:href="#bo"/><use transform="matrix(0.04938271604938272,0,0,0.04938271604938272,58.074074074074076,0)" xlink:href="#bm"/><use transform="matrix(0.04938271604938272,0,0,0.04938271604938272,69.92592592592592,0)" xlink:href="#bc"/><use transform="matrix(0.04938271604938272,0,0,0.04938271604938272,74.8641975308642,0)" xlink:href="#bd"/><use transform="matrix(0.04938271604938272,0,0,0.04938271604938272,84.74074074074075,0)" xlink:href="#be"/></g><path fill="#333" d="M186 0v-106H76V0H24v-248h52v99h110v-99h50V0h-50" id="bS"/><path fill="#333" d="M147 0L96-86 75-71V0H25v-261h50v150l67-79h53l-66 74L201 0h-54" id="bT"/><g id="Q"><use transform="matrix(0.04938271604938272,0,0,0.04938271604938272,0,0)" xlink:href="#bb"/><use transform="matrix(0.04938271604938272,0,0,0.04938271604938272,10.814814814814815,0)" xlink:href="#bc"/><use transform="matrix(0.04938271604938272,0,0,0.04938271604938272,15.753086419753087,0)" xlink:href="#bd"/><use transform="matrix(0.04938271604938272,0,0,0.04938271604938272,25.629629629629633,0)" xlink:href="#be"/><use transform="matrix(0.04938271604938272,0,0,0.04938271604938272,36.44444444444445,0)" xlink:href="#bS"/><use transform="matrix(0.04938271604938272,0,0,0.04938271604938272,49.23456790123458,0)" xlink:href="#bh"/><use transform="matrix(0.04938271604938272,0,0,0.04938271604938272,60.0493827160494,0)" xlink:href="#bh"/><use transform="matrix(0.04938271604938272,0,0,0.04938271604938272,70.8641975308642,0)" xlink:href="#bT"/></g><g id="R"><use transform="matrix(0.06172839506172839,0,0,0.06172839506172839,0,0)" xlink:href="#ab"/><use transform="matrix(0.06172839506172839,0,0,0.06172839506172839,14.814814814814813,0)" xlink:href="#ac"/><use transform="matrix(0.06172839506172839,0,0,0.06172839506172839,22.160493827160494,0)" xlink:href="#ad"/><use transform="matrix(0.06172839506172839,0,0,0.06172839506172839,34.50617283950617,0)" xlink:href="#aW"/><use transform="matrix(0.06172839506172839,0,0,0.06172839506172839,52.96296296296296,0)" xlink:href="#bD"/><use transform="matrix(0.06172839506172839,0,0,0.06172839506172839,65.30864197530865,0)" xlink:href="#aY"/><use transform="matrix(0.06172839506172839,0,0,0.06172839506172839,71.48148148148148,0)" xlink:href="#bP"/></g></defs></g></svg>